<svg xmlns="http://www.w3.org/2000/svg" viewBox="0 0 128 128" fill="none">
  <rect width="128" height="128" rx="28" fill="#E8192C"/>
  <path d="M64 28C46 28 32 42 32 58C32 78 64 100 64 100C64 100 96 78 96 58C96 42 82 28 64 28Z" fill="white" opacity="0.9"/>
  <path d="M64 40C52 40 44 48 44 58C44 72 64 88 64 88C64 88 84 72 84 58C84 48 76 40 64 40Z" fill="#E8192C"/>
  <circle cx="64" cy="56" r="8" fill="white"/>
  <path d="M56 68L64 76L72 68" stroke="white" stroke-width="3" stroke-linecap="round" stroke-linejoin="round"/>
</svg>
